<svg width="21" height="21" viewBox="0 0 21 21" fill="none" xmlns="http://www.w3.org/2000/svg">
<path fill-rule="evenodd" clip-rule="evenodd" d="M17.7236 6.34723L11.5931 2.80787C11.36 2.67332 11.0956 2.60246 10.8264 2.60242C10.5596 2.60242 10.2935 2.67172 10.0555 2.81033L3.92066 6.38035C3.44867 6.65486 3.1583 7.15968 3.15833 7.70569L3.15771 17.5357C3.15771 18.0441 3.56924 18.4556 4.07767 18.4556H8.37077C8.8792 18.4556 9.29072 18.0441 9.29072 17.5357V13.2426C9.29072 13.0733 9.4281 12.9359 9.59737 12.9359H12.0506C12.2198 12.9359 12.3572 13.0733 12.3572 13.2426V17.5357C12.3572 18.0441 12.7687 18.4556 13.2772 18.4556H17.5703C18.0787 18.4556 18.4902 18.0441 18.4902 17.5357V7.67503C18.4902 7.12735 18.1977 6.62138 17.7236 6.34723ZM17.8769 17.5357C17.8769 17.7049 17.7395 17.8423 17.5702 17.8423H13.2771C13.1078 17.8423 12.9704 17.7049 12.9704 17.5357V13.2426C12.9704 12.7354 12.5577 12.3226 12.0505 12.3226H9.59729C9.0901 12.3226 8.67734 12.7354 8.67734 13.2426V17.5357C8.67734 17.7049 8.53996 17.8423 8.37069 17.8423H4.07759C3.90832 17.8423 3.77094 17.7049 3.77094 17.5357L3.77155 7.70569C3.77155 7.37942 3.94696 7.07461 4.22908 6.91086L10.3639 3.34145C10.649 3.1759 11.0008 3.17543 11.2863 3.34022L17.4169 6.87896C17.7002 7.04333 17.8769 7.34814 17.8769 7.67564V17.5357Z" fill="#B3B3B3"/>
</svg>
