<svg width="25" height="25" viewBox="0 0 25 25" fill="none" xmlns="http://www.w3.org/2000/svg">
<g clip-path="url(#clip0_1_199)">
<path d="M12.4884 0.0410156C5.61242 0.0410156 0.0380859 5.6152 0.0380859 12.4912C0.0380859 19.3674 5.61242 24.9412 12.4884 24.9412C19.3651 24.9412 24.9388 19.3674 24.9388 12.4912C24.9388 5.61565 19.3653 0.0410156 12.4884 0.0410156ZM18.198 17.9977C17.975 18.3635 17.4963 18.4794 17.1306 18.2549C14.2073 16.4694 10.5274 16.065 6.19359 17.0551C5.77596 17.1503 5.35968 16.8886 5.26453 16.4708C5.16893 16.0531 5.42956 15.6368 5.84822 15.5416C10.5909 14.4581 14.659 14.9247 17.9408 16.9302C18.3066 17.1547 18.4225 17.632 18.198 17.9977ZM19.7219 14.6077C19.4409 15.0644 18.8433 15.2086 18.3868 14.9276C15.0402 12.8706 9.9388 12.2749 5.98039 13.4764C5.46702 13.6315 4.92481 13.3422 4.769 12.8297C4.61438 12.3163 4.90385 11.7752 5.41633 11.6191C9.93791 10.2471 15.5591 10.9117 19.4023 13.2733C19.8587 13.5543 20.0029 14.1518 19.7219 14.6077ZM19.8528 11.0776C15.8401 8.69422 9.21967 8.47508 5.38852 9.63785C4.77332 9.82443 4.12272 9.47713 3.93629 8.86192C3.74985 8.24642 4.09685 7.59627 4.71251 7.40924C9.1104 6.07416 16.4214 6.33211 21.0412 9.07467C21.5958 9.40309 21.7772 10.1178 21.4486 10.6704C21.1215 11.2237 20.4043 11.4062 19.8528 11.0776Z" fill="#111111" fill-opacity="0.0666667"/>
</g>
<defs>
<clipPath id="clip0_1_199">
<rect width="25" height="25" fill="white"/>
</clipPath>
</defs>
</svg>
