<svg width="20" height="21" viewBox="0 0 20 21" fill="none" xmlns="http://www.w3.org/2000/svg">
<path fill-rule="evenodd" clip-rule="evenodd" d="M13.6111 13.3394C14.7911 12.1245 15.5197 10.4698 15.5197 8.64279C15.5197 4.91699 12.4992 1.89648 8.77341 1.89648C5.0476 1.89648 2.0271 4.91699 2.0271 8.64279C2.0271 12.3686 5.0476 15.3891 8.77341 15.3891C10.23 15.3891 11.5762 14.9224 12.6789 14.1367L16.4611 18.5648L17.394 17.7681L13.6111 13.3394ZM8.77332 14.1625C5.73012 14.1625 3.25361 11.686 3.25361 8.64283C3.25361 5.59963 5.73012 3.12313 8.77332 3.12313C11.8165 3.12313 14.293 5.59963 14.293 8.64283C14.293 11.686 11.8171 14.1625 8.77332 14.1625Z" fill="white"/>
</svg>
